# File created by Blade
# Date/Time:  Thu Sep 25 19:43:58 2014
# Frame Rate: 120.000 fps
#------------------------------------------------------
:FULLY-SPECIFIED
:DEGREES
437
root 3.194527 13.537219 -9.770221 26.266030 24.156600 -13.508973
Spine 10.104505 -6.539700 -39.302092
Head -20.463965 -15.288805 -9.010988
LeftShoulder -2.170541 10.073032 16.286534
LeftArm 15.873276 -6.110209 -53.485664
LeftForeArm 34.757919 -0.000000 26.654981
LeftHand -36.542892 -0.000000 96.469337
LeftHandThumb1 -26.253704 0.000000 33.147579
RightShoulder -15.425620 22.134501 -45.785646
RightArm -11.170470 23.899204 22.242786
RightForeArm 11.480375 -0.000000 17.572945
RightHand -2.786453 -0.000000 -19.222638
RightHandThumb1 -24.326973 -0.000000 -32.862282
LeftUpLeg -133.498295 37.984232 -2.870189
LeftLeg 124.148678 -0.000000 -0.000000
LeftFoot -25.840959 -20.119394 -13.092245
LeftToeBase 2.427611 -0.000000 -0.000000
RightUpLeg -6.690666 -27.421317 -45.037896
RightLeg 11.126439 -0.000000 -0.000000
RightFoot 2.485508 -26.620668 8.955336
RightToeBase 8.034631 -0.000000 -0.000000
438
root 3.207347 13.512090 -9.768977 25.967878 24.005321 -13.635598
Spine 10.034920 -6.476890 -39.318520
Head -19.856262 -15.457336 -9.921360
LeftShoulder -2.274358 10.214432 16.091430
LeftArm 15.721540 -6.837643 -53.670737
LeftForeArm 35.393312 -0.000000 27.073649
LeftHand -36.466533 -0.000000 96.651273
LeftHandThumb1 -26.253704 0.000000 33.147579
RightShoulder -15.470666 22.174354 -46.079654
RightArm -11.037861 24.462655 21.957936
RightForeArm 12.227231 -0.000000 17.694346
RightHand -1.875662 -0.000000 -19.711505
RightHandThumb1 -24.326973 -0.000000 -32.862282
LeftUpLeg -133.257568 38.166172 -2.585908
LeftLeg 124.313082 -0.000000 -0.000000
LeftFoot -25.902049 -20.063181 -13.088790
LeftToeBase 2.429034 -0.000000 -0.000000
RightUpLeg -6.647169 -27.313915 -45.044788
RightLeg 11.127856 -0.000000 -0.000000
RightFoot 2.580677 -26.454767 8.557471
RightToeBase 7.995247 -0.000000 -0.000000
439
root 3.220675 13.484141 -9.764114 25.651289 23.803128 -13.759999
Spine 9.940278 -6.424158 -39.372161
Head -19.223751 -15.546726 -10.795355
LeftShoulder -2.391760 10.369362 15.909356
LeftArm 15.493484 -7.612429 -53.874453
LeftForeArm 36.099503 -0.000000 27.568809
LeftHand -36.448900 -0.000000 96.750458
LeftHandThumb1 -26.253704 0.000000 33.147579
RightShoulder -15.433543 22.195327 -46.343239
RightArm -10.928858 25.037270 21.673784
RightForeArm 13.025158 -0.000000 17.846122
RightHand -1.342740 -0.000000 -19.949572
RightHandThumb1 -24.326973 -0.000000 -32.862282
LeftUpLeg -132.993806 38.404485 -2.283574
LeftLeg 124.458867 -0.000000 -0.000000
LeftFoot -25.926090 -20.059167 -13.207679
LeftToeBase 2.527632 -0.000000 -0.000000
RightUpLeg -6.614751 -27.169809 -45.076221
RightLeg 11.128982 -0.000000 -0.000000
RightFoot 2.659630 -26.281386 8.270549
RightToeBase 7.895129 -0.000000 -0.000000
440
root 3.231685 13.460095 -9.761482 25.326221 23.595418 -13.897047
Spine 9.860875 -6.349127 -39.431371
Head -18.592383 -15.640047 -11.629397
LeftShoulder -2.523761 10.526822 15.743116
LeftArm 15.315551 -8.347936 -54.058032
LeftForeArm 36.764321 -0.000000 28.060557
LeftHand -36.503097 -0.000000 96.864313
LeftHandThumb1 -26.253704 0.000000 33.147579
RightShoulder -15.429543 22.281331 -46.645414
RightArm -10.857057 25.628073 21.407161
RightForeArm 13.652873 -0.000000 18.022774
RightHand -1.012087 -0.000000 -19.933732
RightHandThumb1 -24.326973 -0.000000 -32.862282
LeftUpLeg -132.695975 38.648784 -1.958618
LeftLeg 124.612190 -0.000000 -0.000000
LeftFoot -26.003300 -19.974184 -13.101279
LeftToeBase 2.378996 -0.000000 -0.000000
RightUpLeg -6.611781 -27.017836 -45.086312
RightLeg 11.161286 -0.000000 -0.000000
RightFoot 2.712131 -26.116233 8.074092
RightToeBase 7.960466 -0.000000 -0.000000
441
root 3.241144 13.435759 -9.757460 24.978913 23.369648 -14.077021
Spine 9.773732 -6.227248 -39.440012
Head -18.000095 -15.762748 -12.512732
LeftShoulder -2.576095 10.599956 15.581844
LeftArm 15.012321 -9.054523 -54.231755
LeftForeArm 37.363851 0.000000 28.571278
LeftHand -36.508771 0.000000 97.000019
LeftHandThumb1 -26.253704 0.000000 33.147579
RightShoulder -15.434078 22.359576 -46.864118
RightArm -10.736104 25.865135 21.064895
RightForeArm 14.632164 -0.000000 18.189618
RightHand -0.551758 -0.000000 -20.340158
RightHandThumb1 -24.326973 -0.000000 -32.862282
LeftUpLeg -132.380661 38.923826 -1.578575
LeftLeg 124.777186 -0.000000 -0.000000
LeftFoot -26.088517 -19.895648 -13.093142
LeftToeBase 2.308804 -0.000000 -0.000000
RightUpLeg -6.631459 -26.872079 -45.049361
RightLeg 11.185186 -0.000000 -0.000000
RightFoot 2.812136 -25.945941 7.827634
RightToeBase 8.040494 -0.000000 -0.000000
442
root 3.251710 13.415539 -9.760207 24.680656 23.149604 -14.187792
Spine 9.720084 -6.153248 -39.525106
Head -17.518902 -15.849403 -13.348473
LeftShoulder -2.689010 10.804335 15.438118
LeftArm 14.898800 -9.761188 -54.395592
LeftForeArm 37.917797 -0.000000 29.005702
LeftHand -36.464346 -0.000000 97.101143
LeftHandThumb1 -26.253704 0.000000 33.147579
RightShoulder -15.467264 22.441113 -47.143647
RightArm -10.605031 26.209803 20.789025
RightForeArm 15.604718 -0.000000 18.298225
RightHand -0.213531 -0.000000 -20.500510
RightHandThumb1 -24.326973 -0.000000 -32.862282
LeftUpLeg -132.054242 39.127244 -1.240545
LeftLeg 124.921855 -0.000000 -0.000000
LeftFoot -26.164779 -19.788420 -13.099448
LeftToeBase 2.198287 -0.000000 -0.000000
RightUpLeg -6.658177 -26.718964 -45.076000
RightLeg 11.223143 -0.000000 -0.000000
RightFoot 2.921221 -25.787965 7.598849
RightToeBase 8.071692 -0.000000 -0.000000
